<svg width="77" height="16" viewBox="0 0 77 16" fill="none" xmlns="http://www.w3.org/2000/svg">
<path d="M-0.000638455 14.7441V0.198686H5.738C6.83648 0.198686 7.77398 0.395182 8.5505 0.788174C9.33175 1.17643 9.92597 1.72804 10.3332 2.443C10.7451 3.15323 10.9511 3.98893 10.9511 4.95011C10.9511 5.91602 10.7427 6.74698 10.3261 7.443C9.9094 8.13429 9.30571 8.66459 8.51499 9.03391C7.729 9.40323 6.7773 9.58789 5.65987 9.58789H1.81754V7.1163H5.16271C5.74984 7.1163 6.23752 7.03581 6.62578 6.87482C7.01404 6.71384 7.30287 6.47236 7.49226 6.15039C7.68639 5.82842 7.78345 5.42833 7.78345 4.95011C7.78345 4.46715 7.68639 4.05995 7.49226 3.72852C7.30287 3.39708 7.01167 3.14613 6.61868 2.97567C6.23042 2.80049 5.74037 2.71289 5.14851 2.71289H3.07465V14.7441H-0.000638455ZM7.85448 8.12482L11.4695 14.7441H8.07465L4.53771 8.12482H7.85448ZM17.6634 14.9572C16.5412 14.9572 15.5753 14.7299 14.7656 14.2754C13.9607 13.8161 13.3404 13.1674 12.9048 12.3294C12.4692 11.4866 12.2514 10.4899 12.2514 9.33931C12.2514 8.21715 12.4692 7.2323 12.9048 6.38477C13.3404 5.53723 13.9536 4.87672 14.7443 4.40323C15.5398 3.92975 16.4725 3.693 17.5426 3.693C18.2623 3.693 18.9323 3.80901 19.5526 4.04102C20.1776 4.26829 20.7221 4.61156 21.1861 5.07085C21.6548 5.53013 22.0194 6.10778 22.2798 6.8038C22.5402 7.49509 22.6705 8.30475 22.6705 9.23278V10.0637H13.4588V8.18874H19.8224C19.8224 7.75314 19.7277 7.36725 19.5384 7.03107C19.349 6.6949 19.0862 6.43211 18.75 6.24272C18.4186 6.04859 18.0327 5.95153 17.5923 5.95153C17.1331 5.95153 16.7259 6.05806 16.3707 6.27113C16.0204 6.47946 15.7457 6.76119 15.5469 7.1163C15.348 7.46668 15.2462 7.8573 15.2415 8.28817V10.0708C15.2415 10.6106 15.3409 11.077 15.5398 11.47C15.7434 11.863 16.0298 12.166 16.3991 12.3791C16.7685 12.5922 17.2064 12.6987 17.7131 12.6987C18.0492 12.6987 18.357 12.6513 18.6364 12.5566C18.9157 12.4619 19.1548 12.3199 19.3537 12.1305C19.5526 11.9411 19.7041 11.7091 19.8082 11.4345L22.6065 11.6191C22.4645 12.2915 22.1733 12.8786 21.733 13.3805C21.2973 13.8777 20.7339 14.2659 20.0426 14.5453C19.3561 14.8199 18.563 14.9572 17.6634 14.9572ZM29.3739 14.9572C28.2564 14.9572 27.2953 14.7205 26.4903 14.247C25.6902 13.7688 25.0746 13.1059 24.6438 12.2583C24.2176 11.4108 24.0045 10.4354 24.0045 9.33221C24.0045 8.21478 24.22 7.23467 24.6509 6.39187C25.0865 5.54433 25.7044 4.88382 26.5045 4.41033C27.3047 3.93211 28.2564 3.693 29.3597 3.693C30.3114 3.693 31.1447 3.86583 31.8597 4.21147C32.5746 4.55711 33.1404 5.04244 33.5571 5.66744C33.9738 6.29244 34.2034 7.02634 34.246 7.86914H31.3909C31.3104 7.32463 31.0973 6.88666 30.7517 6.55522C30.4108 6.21905 29.9634 6.05096 29.4094 6.05096C28.9406 6.05096 28.5311 6.1788 28.1807 6.43448C27.835 6.68543 27.5652 7.05238 27.371 7.53533C27.1769 8.01829 27.0798 8.60304 27.0798 9.2896C27.0798 9.98562 27.1745 10.5775 27.3639 11.0652C27.5581 11.5529 27.8303 11.9245 28.1807 12.1802C28.5311 12.4359 28.9406 12.5637 29.4094 12.5637C29.755 12.5637 30.0652 12.4927 30.3398 12.3507C30.6191 12.2086 30.8488 12.0027 31.0287 11.7328C31.2134 11.4582 31.3341 11.1291 31.3909 10.7456H34.246C34.1987 11.5789 33.9714 12.3128 33.5642 12.9473C33.1617 13.577 32.6054 14.0694 31.8952 14.4245C31.1849 14.7797 30.3445 14.9572 29.3739 14.9572ZM39.094 14.9501C38.3979 14.9501 37.7777 14.8294 37.2332 14.5879C36.6887 14.3417 36.2578 13.9795 35.9406 13.5012C35.6281 13.0183 35.4718 12.417 35.4718 11.6973C35.4718 11.0912 35.5831 10.5822 35.8056 10.1703C36.0282 9.75835 36.3312 9.42691 36.7147 9.17596C37.0982 8.92501 37.5338 8.73562 38.0215 8.60778C38.5139 8.47994 39.03 8.38997 39.5698 8.33789C40.2043 8.2716 40.7157 8.21005 41.1039 8.15323C41.4922 8.09168 41.7739 8.00172 41.9491 7.88335C42.1243 7.76497 42.2119 7.58978 42.2119 7.35778V7.31516C42.2119 6.86535 42.0698 6.51734 41.7857 6.27113C41.5064 6.02492 41.1086 5.90181 40.5925 5.90181C40.048 5.90181 39.6148 6.02255 39.2928 6.26403C38.9709 6.50077 38.7578 6.79906 38.6536 7.15891L35.8553 6.93164C35.9974 6.26876 36.2767 5.69584 36.6934 5.21289C37.1101 4.7252 37.6475 4.35115 38.3056 4.09073C38.9685 3.82558 39.7355 3.693 40.6067 3.693C41.2128 3.693 41.7928 3.76403 42.3468 3.90607C42.9055 4.04812 43.4003 4.26829 43.8312 4.56658C44.2668 4.86488 44.6101 5.2484 44.861 5.71715C45.112 6.18117 45.2374 6.73751 45.2374 7.38619V14.7441H42.3681V13.2314H42.2829C42.1077 13.5723 41.8733 13.8729 41.5798 14.1333C41.2862 14.389 40.9335 14.5903 40.5215 14.737C40.1096 14.8791 39.6337 14.9501 39.094 14.9501ZM39.9604 12.862C40.4055 12.862 40.7985 12.7744 41.1394 12.5993C41.4803 12.4193 41.7478 12.1779 41.942 11.8748C42.1361 11.5718 42.2332 11.2285 42.2332 10.845V9.68732C42.1385 9.74888 42.0083 9.80569 41.8425 9.85778C41.6816 9.90513 41.4993 9.95011 41.2957 9.99272C41.0921 10.0306 40.8885 10.0661 40.6849 10.0993C40.4813 10.1277 40.2966 10.1537 40.1309 10.1774C39.7758 10.2295 39.4657 10.3123 39.2005 10.426C38.9353 10.5396 38.7294 10.6935 38.5826 10.8876C38.4358 11.077 38.3624 11.3137 38.3624 11.5978C38.3624 12.0098 38.5116 12.3246 38.8099 12.5424C39.1129 12.7555 39.4964 12.862 39.9604 12.862ZM50.4103 0.198686V14.7441H47.3847V0.198686H50.4103ZM55.6595 0.198686V14.7441H52.6339V0.198686H55.6595ZM61.0153 0.198686V14.7441H57.94V0.198686H61.0153ZM68.8355 9.68732H71.4491L72.7631 11.3777L74.0557 12.8833L76.4918 15.9373H73.6224L71.9463 13.8777L71.0869 12.6561L68.8355 9.68732ZM76.7119 7.47141C76.7119 9.05759 76.4113 10.407 75.8099 11.5197C75.2134 12.6324 74.399 13.4823 73.3668 14.0694C72.3393 14.6518 71.184 14.943 69.9009 14.943C68.6082 14.943 67.4482 14.6494 66.4207 14.0623C65.3933 13.4752 64.5812 12.6253 63.9847 11.5126C63.3881 10.3999 63.0898 9.05285 63.0898 7.47141C63.0898 5.88524 63.3881 4.53581 63.9847 3.42312C64.5812 2.31043 65.3933 1.46289 66.4207 0.880504C67.4482 0.293383 68.6082 -0.000178099 69.9009 -0.000178099C71.184 -0.000178099 72.3393 0.293383 73.3668 0.880504C74.399 1.46289 75.2134 2.31043 75.8099 3.42312C76.4113 4.53581 76.7119 5.88524 76.7119 7.47141ZM73.594 7.47141C73.594 6.44395 73.4402 5.57747 73.1324 4.87198C72.8294 4.16649 72.4009 3.63145 71.8469 3.26687C71.2929 2.90228 70.6442 2.71999 69.9009 2.71999C69.1575 2.71999 68.5088 2.90228 67.9548 3.26687C67.4009 3.63145 66.97 4.16649 66.6622 4.87198C66.3592 5.57747 66.2077 6.44395 66.2077 7.47141C66.2077 8.49888 66.3592 9.36535 66.6622 10.0708C66.97 10.7763 67.4009 11.3114 67.9548 11.676C68.5088 12.0405 69.1575 12.2228 69.9009 12.2228C70.6442 12.2228 71.2929 12.0405 71.8469 11.676C72.4009 11.3114 72.8294 10.7763 73.1324 10.0708C73.4402 9.36535 73.594 8.49888 73.594 7.47141Z" fill="black"/>
</svg>
