<svg width="50" height="30" viewBox="0 0 50 30" fill="none" xmlns="http://www.w3.org/2000/svg">
<g clip-path="url(#clip0_68_306)">
<path d="M14.2102 10.9498C14.2102 11.5598 14.2802 12.0498 14.3902 12.4198C14.5202 12.7798 14.6902 13.1698 14.9202 13.5998C15.0002 13.7298 15.0302 13.8698 15.0302 13.9798C15.0302 14.1398 14.9302 14.3098 14.7302 14.4798L13.6802 15.1598C13.5402 15.2598 13.3802 15.3098 13.2602 15.3098C13.0902 15.3098 12.9302 15.2298 12.7602 15.0798C12.5395 14.8425 12.342 14.5846 12.1702 14.3098C12.0102 14.0298 11.8402 13.7098 11.6702 13.3398C11.0898 14.0619 10.3519 14.6419 9.51309 15.0353C8.67426 15.4287 7.75661 15.6252 6.83022 15.6098C6.22851 15.6425 5.62636 15.554 5.05949 15.3496C4.49262 15.1452 3.97258 14.829 3.53022 14.4198C3.12317 14.0059 2.80569 13.5126 2.59752 12.9707C2.38935 12.4288 2.29496 11.8498 2.32022 11.2698C2.32022 9.8698 2.82022 8.7298 3.82022 7.8698C4.82022 7.0198 6.15022 6.5998 7.85022 6.5998C8.40022 6.5998 8.98022 6.6398 9.59022 6.7298C10.1902 6.8098 10.8202 6.9398 11.4802 7.0898V5.8898C11.4802 4.6398 11.2202 3.7698 10.7102 3.2598C10.1802 2.7498 9.29022 2.4998 8.03022 2.4998C7.45022 2.4998 6.86022 2.5698 6.25022 2.7098C5.65022 2.8598 5.05022 3.0398 4.47022 3.2698C4.20249 3.38524 3.92463 3.47563 3.64022 3.5398C3.40022 3.5398 3.29022 3.3698 3.29022 3.0298V2.2198C3.29022 1.9598 3.32022 1.7598 3.40022 1.6398C3.49022 1.5298 3.64022 1.4098 3.87022 1.2998C4.44022 0.999797 5.13022 0.759797 5.94022 0.559797C6.74022 0.349797 7.60022 0.249797 8.50022 0.249797C10.4602 0.249797 11.9002 0.689797 12.8102 1.5798C13.7102 2.4698 14.1802 3.8198 14.1802 5.6198V10.9498H14.2102ZM7.53022 13.4498C8.08022 13.4498 8.63022 13.3498 9.23022 13.1498C9.82022 12.9598 10.3502 12.5998 10.7902 12.1098C11.0502 11.7898 11.2502 11.4498 11.3502 11.0498C11.4502 10.6498 11.5102 10.1798 11.5102 9.6198V8.9298C10.5077 8.68872 9.48125 8.56125 8.45022 8.5498C7.35022 8.5498 6.55022 8.7698 6.00022 9.2098C5.46022 9.6498 5.20022 10.2798 5.20022 11.1098C5.20022 11.8798 5.40022 12.4498 5.80022 12.8498C6.20022 13.2498 6.78022 13.4498 7.53022 13.4498ZM20.7402 15.2298C20.4402 15.2298 20.2402 15.1798 20.1202 15.0698C19.9802 14.9698 19.8702 14.7398 19.7702 14.4198L15.9002 1.7198C15.8002 1.3798 15.7602 1.1698 15.7602 1.0498C15.7602 0.789797 15.8902 0.649797 16.1602 0.649797H17.7602C18.0802 0.649797 18.2902 0.689797 18.4002 0.809797C18.5402 0.909797 18.6402 1.1298 18.7302 1.4498L21.5002 12.3398L24.0602 1.4398C24.1502 1.1198 24.2402 0.899797 24.3802 0.809797C24.5102 0.709797 24.7402 0.639797 25.0302 0.639797H26.3502C26.6602 0.639797 26.8802 0.689797 27.0102 0.809797C27.1402 0.909797 27.2502 1.1298 27.3102 1.4498L29.9102 12.4698L32.7602 1.4498C32.8602 1.1198 32.9802 0.899797 33.0902 0.809797C33.2202 0.709797 33.4402 0.639797 33.7302 0.639797H35.2602C35.5302 0.639797 35.6702 0.769797 35.6702 1.0498L35.6402 1.3198C35.6302 1.4198 35.5902 1.5498 35.5302 1.7198L31.5602 14.4398C31.4602 14.7698 31.3502 14.9798 31.2202 15.0798C31.0902 15.1798 30.8702 15.2498 30.5902 15.2498H29.1802C28.8702 15.2498 28.6502 15.1998 28.5202 15.0798C28.3902 14.9698 28.2702 14.7498 28.2102 14.4198L25.6602 3.8198L23.1302 14.4098C23.0402 14.7398 22.9402 14.9498 22.8102 15.0698C22.6802 15.1798 22.4502 15.2298 22.1502 15.2298H20.7402ZM41.8802 15.6698C40.3533 15.6672 38.844 15.3435 37.4502 14.7198C37.1902 14.5698 37.0102 14.4098 36.9502 14.2598C36.8802 14.1098 36.8502 13.9498 36.8502 13.7998V12.9598C36.8502 12.6198 36.9702 12.4598 37.2202 12.4598C37.3202 12.4598 37.4202 12.4598 37.5202 12.4998L37.9202 12.6598C39.1054 13.1902 40.3918 13.4564 41.6902 13.4398C42.7302 13.4398 43.5402 13.2598 44.0902 12.8898C44.6502 12.5298 44.9502 12.0098 44.9502 11.3298C44.9502 10.8698 44.8002 10.4898 44.5102 10.1798C44.2102 9.8698 43.6502 9.5798 42.8502 9.3298L40.4602 8.5898C39.4273 8.32344 38.5061 7.73499 37.8302 6.9098C37.5109 6.49483 37.278 6.02011 37.1452 5.51364C37.0123 5.00717 36.9823 4.47923 37.0569 3.96097C37.1315 3.44272 37.3091 2.94465 37.5793 2.49618C37.8495 2.0477 38.2069 1.6579 38.6302 1.3498C39.1302 0.969797 39.6902 0.689797 40.3502 0.489797C41.3833 0.215335 42.4599 0.144016 43.5202 0.279797C43.9002 0.329797 44.2402 0.389797 44.5902 0.459797C44.9202 0.539797 45.2302 0.619797 45.5302 0.719797C45.8302 0.819797 46.0502 0.919797 46.2202 1.0198C46.4502 1.1498 46.6202 1.2798 46.7202 1.4298C46.8102 1.5598 46.8602 1.7398 46.8602 1.9698V2.7498C46.8602 3.0898 46.7302 3.2698 46.4802 3.2698C46.3502 3.2698 46.1402 3.2098 45.8602 3.0698C44.8655 2.63051 43.7874 2.41216 42.7002 2.4298C41.7602 2.4298 41.0202 2.5798 40.5102 2.8898C40.0002 3.2098 39.7402 3.6898 39.7402 4.3598C39.7402 4.8198 39.9002 5.2098 40.2302 5.5298C40.5602 5.8298 41.1702 6.1498 42.0402 6.4298L44.3802 7.1698C45.3683 7.42492 46.2546 7.97627 46.9202 8.7498C47.4302 9.4198 47.6802 10.1998 47.6802 11.0498C47.6802 11.7598 47.5302 12.3998 47.2502 12.9598C46.9502 13.5198 46.5602 14.0098 46.0502 14.4098C45.5088 14.8314 44.8907 15.1438 44.2302 15.3298C43.4902 15.5598 42.7102 15.6698 41.8802 15.6698ZM44.9802 23.6698C39.5802 27.6698 31.7102 29.7898 24.9502 29.7898C15.4802 29.7898 6.94022 26.2898 0.490222 20.4598C-0.00977808 19.9998 0.440222 19.3698 1.05022 19.7398C8.50526 24.0005 16.9435 26.2411 25.5302 26.2398C31.5302 26.2398 38.1302 24.9798 44.1902 22.4198C45.0902 22.0098 45.8702 23.0098 44.9902 23.6698H44.9802Z" fill="black"/>
<path d="M47.2404 21.0992C46.5404 20.2092 42.6604 20.6692 40.9004 20.8892C40.3804 20.9492 40.3004 20.4892 40.7704 20.1492C43.8704 17.9792 48.9504 18.5992 49.5404 19.3292C50.1304 20.0692 49.3704 25.1492 46.4804 27.5792C46.0304 27.9592 45.6104 27.7592 45.8004 27.2692C46.4604 25.6392 47.9304 21.9692 47.2404 21.0992Z" fill="black"/>
</g>
<defs>
<clipPath id="clip0_68_306">
<rect width="50" height="30" fill="white"/>
</clipPath>
</defs>
</svg>
