<svg width="120" height="26" viewBox="0 0 120 26" fill="none" xmlns="http://www.w3.org/2000/svg">
<g clip-path="url(#clip0_68_298)">
<path d="M34.1801 2.45069C33.8101 2.27069 33.6501 2.61069 33.4401 2.79069C33.3638 2.847 33.2964 2.91441 33.2401 2.99069C32.7101 3.55069 32.0801 3.93069 31.2701 3.88069C30.0701 3.81069 29.0601 4.18069 28.1501 5.10069C28.076 4.60347 27.87 4.13522 27.5534 3.74475C27.2368 3.35428 26.8212 3.05589 26.3501 2.88069C25.8501 2.65069 25.3401 2.43069 24.9901 1.94069C24.7401 1.60069 24.6701 1.21069 24.5501 0.840688C24.4701 0.600688 24.3901 0.370688 24.1201 0.330688C23.8401 0.280688 23.7201 0.530688 23.6201 0.730688C23.1866 1.53791 22.9728 2.44485 23.0001 3.36069C22.9908 4.33087 23.2293 5.28737 23.6931 6.1396C24.1568 6.99182 24.8304 7.71157 25.6501 8.23069C25.8501 8.36069 25.9001 8.50069 25.8401 8.69069L25.4501 9.89069C25.3701 10.1407 25.2501 10.1907 24.9801 10.0907C24.0458 9.68893 23.1972 9.11186 22.4801 8.39069C21.2501 7.20069 20.1301 5.89069 18.7401 4.86069C18.4201 4.63069 18.0901 4.40069 17.7501 4.19069C16.3301 2.81069 17.9401 1.69069 18.3101 1.55069C18.7001 1.41069 18.4501 0.930688 17.1901 0.940688C15.9301 0.940688 14.7901 1.36069 13.3201 1.92069C13.1101 2.00069 12.8801 2.07069 12.6501 2.12069C11.3201 1.87069 9.95007 1.81069 8.50007 1.97069C7.21318 2.09391 5.96832 2.49478 4.85133 3.14563C3.73434 3.79649 2.7718 4.68186 2.03007 5.74069C0.120069 8.37069 -0.329931 11.3507 0.220069 14.4607C0.800069 17.7407 2.48007 20.4607 5.05007 22.5807C7.62054 24.7754 10.9477 25.8773 14.3201 25.6507C16.4501 25.5307 18.8201 25.2507 21.5101 22.9807C22.3167 23.34 23.1872 23.5339 24.0701 23.5507C24.9701 23.6407 25.8501 23.5107 26.5201 23.3707C27.5801 23.1407 27.5101 22.1707 27.1201 21.9907C24.0201 20.5507 24.7001 21.1307 24.0801 20.6607C25.4601 19.0407 27.4301 17.3607 28.5401 12.8307C28.8001 11.7507 28.9701 10.5307 28.9701 9.39069C28.9701 9.17069 29.0201 9.05069 29.3001 9.02069C30.0701 8.94069 30.8301 8.72069 31.5201 8.34069C33.5301 7.24069 34.3401 5.45069 34.5301 3.29069C34.5601 2.96069 34.5301 2.62069 34.1801 2.45069ZM16.6701 21.8507C13.6601 19.5007 12.2001 18.7207 11.6001 18.7507C11.0401 18.7907 11.1401 19.4307 11.2601 19.8507C11.3901 20.2607 11.5601 20.5507 11.8001 20.9107C11.9601 21.1507 12.0701 21.5107 11.6301 21.7807C10.6701 22.3807 8.98007 21.5807 8.90007 21.5407C6.91298 20.4204 5.27033 18.7778 4.15007 16.7907C3.0355 14.8182 2.39528 12.6134 2.28007 10.3507C2.26007 9.80069 2.42007 9.61069 2.98007 9.51069C3.70522 9.37083 4.44837 9.35056 5.18007 9.45069C8.24007 9.90069 10.8501 11.2607 13.0401 13.4307C14.2901 14.6707 15.2401 16.1407 16.2101 17.5807C17.201 19.1325 18.4024 20.5392 19.7801 21.7607C20.2801 22.1807 20.6801 22.5007 21.0601 22.7407C19.9101 22.8707 17.9801 22.8907 16.6601 21.8507H16.6701ZM18.1201 12.5007C18.1357 12.4412 18.1637 12.3856 18.2022 12.3376C18.2407 12.2896 18.2888 12.2501 18.3434 12.2219C18.3981 12.1936 18.4581 12.1771 18.5195 12.1734C18.5809 12.1698 18.6424 12.1791 18.7001 12.2007C18.7853 12.23 18.8591 12.2854 18.9111 12.359C18.9632 12.4325 18.9908 12.5206 18.9901 12.6107C18.9901 12.8607 18.7901 13.0507 18.5501 13.0507C18.444 13.0542 18.3404 13.0183 18.2591 12.95C18.1779 12.8817 18.1248 12.7858 18.1101 12.6807C18.1015 12.6206 18.1049 12.5594 18.1201 12.5007ZM22.4401 14.9607C22.2001 15.0507 21.9601 15.1207 21.7401 15.1307C21.3234 15.1487 20.9133 15.0215 20.5801 14.7707C20.1901 14.4407 19.9101 14.2507 19.7901 13.6707C19.7401 13.4307 19.7701 13.0507 19.8101 12.8307C19.9101 12.3607 19.8101 12.0607 19.4701 11.7907C19.1821 11.5777 18.8273 11.4749 18.4701 11.5007C18.3439 11.4962 18.2205 11.462 18.1101 11.4007C17.9601 11.3107 17.8301 11.1207 17.9501 10.8807C17.9901 10.8007 18.1801 10.6107 18.2301 10.5807C18.7301 10.2807 19.3301 10.3807 19.8701 10.6007C20.3801 10.8007 20.7701 11.1907 21.3201 11.7207C21.8801 12.3707 21.9801 12.5507 22.3001 13.0307C22.5501 13.4107 22.7901 13.8107 22.9401 14.2507C23.0201 14.4907 22.9401 14.6807 22.7301 14.8207C22.6301 14.8807 22.5301 14.9207 22.4301 14.9607H22.4401ZM110.88 6.25069H112.98V19.3007H110.88V6.25069ZM117.4 9.86069L113.96 14.0607L117.4 19.3007H120L116.56 14.0607L120 9.86069H117.4ZM101.5 10.6607C102.34 9.75069 103.63 9.42069 104.91 9.42069C106.19 9.42069 107.49 9.75069 108.33 10.6607C109.17 11.5707 109.47 12.9607 109.47 14.3607V15.1207H103.89V13.6007H107.59C107.527 13.066 107.308 12.5616 106.96 12.1507C106.46 11.6007 105.68 11.4107 104.91 11.4107C104.14 11.4107 103.37 11.6107 102.86 12.1507C102.36 12.7007 102.18 13.5407 102.18 14.3707C102.18 15.2007 102.36 16.0407 102.86 16.5907C103.36 17.1407 104.14 17.3307 104.91 17.3307C105.68 17.3307 106.46 17.1307 106.96 16.5907C107.04 16.5107 107.1 16.4307 107.16 16.3407H109.23C109.072 16.9808 108.764 17.5739 108.33 18.0707C107.49 18.9707 106.19 19.3107 104.91 19.3107C103.63 19.3107 102.34 18.9807 101.5 18.0707C100.66 17.1607 100.35 15.7607 100.35 14.3707C100.35 12.9707 100.65 11.5807 101.5 10.6707V10.6607ZM94.3801 9.42069C93.1001 9.42069 91.8101 9.75069 90.9701 10.6607C90.1301 11.5707 89.8201 12.9607 89.8201 14.3607C89.8201 15.7507 90.1201 17.1507 90.9701 18.0607C91.8101 18.9607 93.1001 19.3007 94.3801 19.3007C95.6701 19.3007 96.9601 18.9707 97.8001 18.0607C98.2348 17.5648 98.5436 16.9713 98.7001 16.3307H96.6301C96.5701 16.4207 96.5101 16.5007 96.4301 16.5807C95.9301 17.1307 95.1501 17.3207 94.3801 17.3207C93.6101 17.3207 92.8401 17.1207 92.3301 16.5807C91.8301 16.0307 91.6501 15.1907 91.6501 14.3607C91.6501 13.5307 91.8301 12.6907 92.3301 12.1407C92.8301 11.5907 93.6101 11.4007 94.3801 11.4007C95.1501 11.4007 95.9301 11.6007 96.4301 12.1407C96.7801 12.5207 96.9801 13.0407 97.0701 13.5907H93.3601V15.1207H98.9401V14.3607C98.9401 12.9607 98.6401 11.5707 97.8001 10.6607C96.9601 9.75069 95.6701 9.42069 94.3801 9.42069ZM83.8501 13.4707C85.1301 13.4707 86.4301 13.6607 87.2701 14.2007C87.634 14.4328 87.9308 14.7562 88.1308 15.1387C88.3308 15.5212 88.4271 15.9494 88.4101 16.3807C88.4101 17.2007 88.1101 18.0307 87.2701 18.5607C86.4301 19.1007 85.1301 19.2907 83.8501 19.2907C82.5701 19.2907 81.2801 19.1007 80.4401 18.5607C80.0743 18.3298 79.7755 18.007 79.5737 17.6244C79.3719 17.2418 79.2741 16.8129 79.2901 16.3807H81.7501C81.7501 16.7007 81.9001 17.0207 82.2901 17.2307C82.6901 17.4307 83.3001 17.5107 83.9001 17.5107C84.5001 17.5107 85.1201 17.4407 85.5101 17.2307C85.9101 17.0307 86.0601 16.7007 86.0601 16.3807C86.0603 16.201 86.0085 16.0251 85.9109 15.8743C85.8133 15.7234 85.6741 15.6041 85.5101 15.5307C85.1101 15.3307 84.4601 15.2507 83.8501 15.2507C82.6901 15.2507 81.5301 15.0507 80.7601 14.5207C80.4219 14.2705 80.1509 13.9405 79.9711 13.5601C79.7914 13.1797 79.7086 12.7608 79.7301 12.3407C79.7301 11.5207 80.0001 10.6907 80.7601 10.1607C81.6988 9.61625 82.7766 9.35897 83.8601 9.42069C85.0101 9.42069 86.1801 9.62069 86.9401 10.1607C87.2801 10.4098 87.5531 10.7393 87.7346 11.1197C87.916 11.5002 88.0004 11.9197 87.9801 12.3407H85.8401C85.8457 12.1674 85.8029 11.996 85.7163 11.8458C85.6297 11.6956 85.5029 11.5726 85.3501 11.4907C85.0001 11.2907 84.4501 11.2107 83.9001 11.2107C83.3501 11.2107 82.8001 11.2807 82.4401 11.4907C82.2873 11.5726 82.1604 11.6956 82.0739 11.8458C81.9873 11.996 81.9444 12.1674 81.9501 12.3407C81.9501 12.6507 82.0801 12.9807 82.4501 13.1807C82.9016 13.3968 83.4001 13.4965 83.9001 13.4707H83.8501ZM73.5001 9.42069C72.7001 9.42069 71.9001 9.60069 71.3701 10.0907L71.2401 10.2207H70.8601V9.42069H68.7601V22.0207H70.8601V14.2007C70.8601 13.4007 71.0401 12.5907 71.5201 12.0607C72.0101 11.5307 72.7501 11.3407 73.5001 11.3407C74.2401 11.3407 74.9801 11.5307 75.4701 12.0607C75.9601 12.5907 76.1301 13.4007 76.1301 14.2007C76.1301 15.0007 75.9601 15.8207 75.4701 16.3507C74.9801 16.8807 74.2401 17.0707 73.5001 17.0707H72.3001V18.9707H73.5001C74.7301 18.9707 75.9701 18.6607 76.7801 17.7707C77.5901 16.8907 77.8801 15.5507 77.8801 14.2007C77.8801 12.8607 77.5901 11.5107 76.7801 10.6307C75.9801 9.75069 74.7301 9.43069 73.5001 9.43069V9.42069ZM59.3801 10.6607C60.2201 9.75069 61.5101 9.42069 62.7901 9.42069C64.0801 9.42069 65.3701 9.75069 66.2101 10.6607C67.0501 11.5707 67.3501 12.9607 67.3501 14.3607V15.1207H61.7701V13.6007H65.4701C65.41 13.067 65.1944 12.5628 64.8501 12.1507C64.3401 11.6007 63.5701 11.4107 62.8001 11.4107C62.0301 11.4107 61.2501 11.6107 60.7501 12.1507C60.2401 12.7007 60.0501 13.5407 60.0501 14.3707C60.0501 15.2007 60.2401 16.0407 60.7501 16.5907C61.2501 17.1407 62.0301 17.3307 62.8001 17.3307C63.5701 17.3307 64.3401 17.1307 64.8501 16.5907L65.0401 16.3407H67.1101C66.9532 16.9812 66.6445 17.5746 66.2101 18.0707C65.3701 18.9707 64.0801 19.3107 62.7901 19.3107C61.5101 19.3107 60.2201 18.9807 59.3901 18.0707C58.5401 17.1607 58.2401 15.7607 58.2401 14.3707C58.2401 12.9707 58.5401 11.5807 59.3801 10.6707V10.6607ZM52.2701 9.42069C50.9801 9.42069 49.6901 9.75069 48.8501 10.6607C48.0101 11.5707 47.7101 12.9607 47.7101 14.3607C47.7101 15.7507 48.0101 17.1507 48.8501 18.0607C49.6901 18.9607 50.9801 19.3007 52.2701 19.3007C53.5501 19.3007 54.8401 18.9707 55.6801 18.0607C56.1101 17.5907 56.4001 16.9907 56.5801 16.3307H54.5101C54.4501 16.4207 54.3901 16.5007 54.3101 16.5807C53.8101 17.1307 53.0401 17.3207 52.2701 17.3207C51.5001 17.3207 50.7201 17.1207 50.2201 16.5807C49.7201 16.0307 49.5201 15.1907 49.5201 14.3607C49.5201 13.5307 49.7201 12.6907 50.2201 12.1407C50.7201 11.5907 51.5001 11.4007 52.2701 11.4007C53.0401 11.4007 53.8101 11.6007 54.3201 12.1407C54.6701 12.5207 54.8601 13.0407 54.9501 13.5907H51.2501V15.1207H56.8301V14.3607C56.8301 12.9607 56.5301 11.5707 55.6801 10.6607C54.8401 9.75069 53.5501 9.42069 52.2701 9.42069ZM43.5401 16.6707C44.0201 16.1407 44.2001 15.3307 44.2001 14.5207V6.70069H46.3001V19.3007H44.2001V18.5007H43.8101L43.6901 18.6407C43.1601 19.1307 42.3601 19.3107 41.5601 19.3107C40.3301 19.3107 39.0901 18.9907 38.2801 18.1107C37.4701 17.2307 37.1801 15.8807 37.1801 14.5307C37.1801 13.1907 37.4701 11.8407 38.2801 10.9607C39.0801 10.0807 40.3301 9.76069 41.5601 9.76069H42.7601V11.6707H41.5601C40.8201 11.6707 40.0801 11.8707 39.5901 12.3907C39.1001 12.9207 38.9301 13.7307 38.9301 14.5307C38.9301 15.3407 39.1001 16.1507 39.5901 16.6807C40.0801 17.2107 40.8201 17.4007 41.5601 17.4007C42.3101 17.4007 43.0601 17.2007 43.5401 16.6807V16.6707Z" fill="black"/>
</g>
<defs>
<clipPath id="clip0_68_298">
<rect width="120" height="26" fill="white"/>
</clipPath>
</defs>
</svg>
