<svg width="80" height="28" viewBox="0 0 80 28" fill="none" xmlns="http://www.w3.org/2000/svg">
<g clip-path="url(#clip0_68_302)">
<path d="M34.24 14.6992C34.2495 15.5671 34.085 16.4282 33.7563 17.2315C33.4275 18.0349 32.9413 18.7643 32.3261 19.3766C31.7109 19.989 30.9794 20.4719 30.1745 20.797C29.3697 21.122 28.5079 21.2826 27.64 21.2692C26.7713 21.2826 25.9086 21.1218 25.1031 20.7961C24.2976 20.4704 23.5656 19.9866 22.9503 19.3731C22.335 18.7597 21.8489 18.0291 21.5208 17.2246C21.1927 16.4201 21.0292 15.558 21.04 14.6892C21.0264 13.8197 21.188 12.9563 21.5152 12.1505C21.8423 11.3447 22.3283 10.6131 22.9441 9.99907C23.56 9.38508 24.2931 8.90133 25.0999 8.57664C25.9066 8.25196 26.7705 8.09299 27.64 8.1092C31.27 8.1092 34.24 10.8792 34.24 14.6892V14.6992ZM31.34 14.6992C31.34 12.3192 29.63 10.6992 27.64 10.6992C25.64 10.6992 23.92 12.3192 23.92 14.6992C23.92 17.0392 25.64 18.6792 27.63 18.6792C29.63 18.6792 31.35 17.0292 31.35 14.6892L31.34 14.6992ZM48.48 14.6992C48.4895 15.5671 48.325 16.4282 47.9963 17.2315C47.6675 18.0349 47.1813 18.7643 46.5661 19.3766C45.9509 19.989 45.2194 20.4719 44.4145 20.797C43.6097 21.122 42.7479 21.2826 41.88 21.2692C41.0113 21.2826 40.1486 21.1218 39.3431 20.7961C38.5376 20.4704 37.8056 19.9866 37.1903 19.3731C36.575 18.7597 36.0889 18.0291 35.7608 17.2246C35.4327 16.4201 35.2692 15.558 35.28 14.6892C35.2664 13.8197 35.428 12.9563 35.7551 12.1505C36.0823 11.3447 36.5683 10.6131 37.1841 9.99907C37.8 9.38508 38.5331 8.90133 39.3399 8.57664C40.1466 8.25196 41.0105 8.09299 41.88 8.1092C45.51 8.1092 48.48 10.8792 48.48 14.6892V14.6992ZM45.58 14.6992C45.58 12.3192 43.87 10.6992 41.88 10.6992C39.88 10.6992 38.16 12.3192 38.16 14.6992C38.16 17.0392 39.88 18.6792 41.87 18.6792C43.87 18.6792 45.59 17.0292 45.59 14.6892L45.58 14.6992ZM62.12 8.4992V20.3192C62.12 25.1792 59.26 27.1692 55.87 27.1692C54.6225 27.1758 53.4014 26.8102 52.3628 26.119C51.3243 25.4278 50.5155 24.4425 50.04 23.2892L52.55 22.2392C52.8071 22.9158 53.2605 23.5001 53.8521 23.917C54.4437 24.334 55.1464 24.5646 55.87 24.5792C58.04 24.5792 59.38 23.2392 59.38 20.7192V19.7692H59.28C58.63 20.5692 57.38 21.2692 55.81 21.2692C54.1132 21.2145 52.5048 20.499 51.3279 19.2754C50.151 18.0518 49.4987 16.4169 49.51 14.7192C49.51 10.9992 52.52 8.1192 55.81 8.1192C57.38 8.1192 58.63 8.8092 59.28 9.5792H59.38V8.5092H62.12V8.4992ZM59.58 14.7092C59.58 12.3992 58.04 10.7092 56.08 10.7092C54.08 10.7092 52.41 12.3992 52.41 14.7092C52.41 17.0092 54.08 18.6792 56.07 18.6792C58.04 18.6792 59.58 17.0092 59.58 14.7192V14.7092ZM66.65 1.5792V20.8692H63.83V1.5792H66.65ZM77.63 16.8592L79.88 18.3592C79.2762 19.259 78.4586 19.9949 77.5005 20.501C76.5423 21.0072 75.4736 21.2677 74.39 21.2592C73.5257 21.2715 72.6678 21.1096 71.8673 20.7833C71.0669 20.4569 70.3404 19.9728 69.731 19.3597C69.1217 18.7466 68.642 18.0171 68.3205 17.2147C67.9991 16.4123 67.8425 15.5534 67.86 14.6892C67.86 10.7792 70.68 8.1092 74.06 8.1092C77.48 8.1092 79.16 10.8292 79.7 12.2892L80 13.0392L71.2 16.6892C71.88 18.0092 72.92 18.6792 74.4 18.6792C75.86 18.6792 76.88 17.9492 77.63 16.8592ZM70.73 14.4892L76.61 12.0492C76.29 11.2292 75.31 10.6492 74.17 10.6492C73.6904 10.6708 73.2199 10.7878 72.7861 10.9935C72.3523 11.1991 71.9639 11.4892 71.6436 11.8468C71.3232 12.2044 71.0775 12.6222 70.9206 13.076C70.7637 13.5297 70.6989 14.0101 70.73 14.4892ZM10.36 12.9792V10.1792H19.77C19.87 10.6792 19.91 11.2492 19.91 11.8792C19.91 13.9692 19.34 16.5592 17.49 18.3992C15.69 20.2692 13.4 21.2692 10.37 21.2692C7.64471 21.2721 5.02805 20.201 3.08699 18.288C1.14593 16.375 0.0368267 13.7742 0 11.0492C0 5.4192 4.74 0.829199 10.37 0.829199C11.6657 0.809956 12.9522 1.04946 14.1542 1.53369C15.3562 2.01792 16.4495 2.73713 17.37 3.6492L15.4 5.6192C14.3526 4.63087 13.0374 3.97295 11.6184 3.72756C10.1994 3.48218 8.73952 3.66021 7.42108 4.23942C6.10264 4.81864 4.98403 5.77338 4.20488 6.98445C3.42574 8.19552 3.02058 9.60927 3.04 11.0492C3.02676 12.0193 3.20625 12.9824 3.56806 13.8827C3.92987 14.7829 4.4668 15.6024 5.14772 16.2935C5.82863 16.9846 6.63998 17.5337 7.53472 17.9089C8.42946 18.2841 9.38978 18.478 10.36 18.4792C11.3156 18.5172 12.2686 18.3544 13.1574 18.0013C14.0462 17.6482 14.851 17.1126 15.52 16.4292C16.3974 15.481 16.9324 14.2666 17.04 12.9792H10.36Z" fill="black"/>
</g>
<defs>
<clipPath id="clip0_68_302">
<rect width="80" height="28" fill="white"/>
</clipPath>
</defs>
</svg>
