<svg width="80" height="30" viewBox="0 0 80 30" fill="none" xmlns="http://www.w3.org/2000/svg">
<path d="M69.18 22.01V7.21H71.52V16.98L76.47 11.28H79.31L74.85 16.16L79.35 22.01H76.55L72.91 16.99L71.51 16.98V22.01H69.18ZM62.08 22.26C58.6 22.26 56.71 19.79 56.71 16.64C56.71 13.47 58.6 11.02 62.08 11.02C65.58 11.02 67.44 13.47 67.44 16.64C67.44 19.79 65.58 22.26 62.08 22.26ZM59.16 16.64C59.16 19.09 60.48 20.31 62.08 20.31C63.69 20.31 65 19.09 65 16.64C65 14.19 63.7 12.94 62.08 12.94C60.48 12.94 59.16 14.19 59.16 16.64ZM50.19 22.01V12.99L52.16 11.29H56.35V13.28H52.53V22.01H50.19ZM41.24 22.29C36.78 22.29 34.12 19.05 34.12 14.63C34.12 10.17 36.88 6.85 41.33 6.85C44.81 6.85 47.36 8.63 47.96 11.95H45.28C44.88 10.06 43.31 9.01 41.32 9.01C38.11 9.01 36.7 11.79 36.7 14.63C36.7 17.47 38.1 20.23 41.32 20.23C41.8853 20.2651 42.4518 20.1871 42.9866 20.0006C43.5214 19.8141 44.0136 19.5229 44.4344 19.1439C44.8553 18.7649 45.1964 18.3059 45.4377 17.7935C45.6791 17.2812 45.8158 16.7258 45.84 16.16H41.22V14.01H48.2L48.19 15.14C48.19 19.31 46.49 22.29 41.23 22.29H41.24ZM11.71 18.68L21.79 11.23C22.29 10.87 22.99 11.01 23.22 11.58C23.8516 13.0954 24.0196 14.7641 23.7028 16.375C23.386 17.9859 22.5985 19.4667 21.44 20.63C20.2846 21.7912 18.8083 22.5802 17.2009 22.8957C15.5935 23.2111 13.9285 23.0385 12.42 22.4L8.98 23.99C10.8551 25.3396 13.0983 26.0831 15.4083 26.1207C17.7183 26.1584 19.9845 25.4883 21.9026 24.2005C23.8207 22.9127 25.2989 21.0688 26.1386 18.9165C26.9782 16.7642 27.1393 14.4065 26.6 12.16C25.36 6.82 26.91 4.69 30.08 0.32C30.15 0.22 30.23 0.12 30.3 0L26.13 4.18V4.15L11.71 18.68ZM9.63 20.49C6.11 17.12 6.72 11.9 9.73 8.89C10.8973 7.74142 12.3749 6.95911 13.9811 6.63931C15.5872 6.3195 17.2517 6.47616 18.77 7.09L22.19 5.51C20.1892 4.05498 17.7672 3.2948 15.2938 3.34555C12.8204 3.39631 10.4316 4.25521 8.49225 5.79109C6.55285 7.32696 5.16944 9.4554 4.55329 11.8513C3.93715 14.2473 4.12214 16.7791 5.08 19.06C6.37 22.2 4.25 24.42 2.12 26.66C1.37 27.46 0.61 28.26 0 29.1L9.62 20.49" fill="black"/>
</svg>
