<svg width="80" height="22" viewBox="0 0 80 22" fill="none" xmlns="http://www.w3.org/2000/svg">
<path d="M8.50001 5.87124e-06C6.24729 0.00528776 4.08835 0.902517 2.49543 2.49543C0.902517 4.08835 0.00528776 6.24729 5.87124e-06 8.50001C-0.00197178 10.184 0.495702 11.8307 1.43003 13.2317C2.36436 14.6327 3.69334 15.725 5.24875 16.3703C6.80415 17.0156 8.51606 17.185 10.1678 16.857C11.8195 16.5289 13.3367 15.7182 14.5275 14.5275C15.7182 13.3367 16.5289 11.8195 16.857 10.1678C17.185 8.51606 17.0156 6.80415 16.3703 5.24875C15.725 3.69334 14.6327 2.36436 13.2317 1.43003C11.8307 0.495702 10.184 -0.00197178 8.50001 5.87124e-06ZM8.50001 13.95C7.79626 13.9423 7.10109 13.7946 6.45507 13.5153C5.80905 13.2361 5.22511 12.831 4.73732 12.3237C4.24954 11.8163 3.86769 11.2169 3.61404 10.5604C3.3604 9.90394 3.24005 9.20351 3.26001 8.50001C3.23869 7.79567 3.35804 7.09416 3.61108 6.43651C3.86411 5.77885 4.24575 5.17826 4.73367 4.66986C5.22159 4.16146 5.80599 3.75545 6.45268 3.4756C7.09938 3.19575 7.79539 3.04766 8.50001 3.04001C9.20462 3.04766 9.90063 3.19575 10.5473 3.4756C11.194 3.75545 11.7784 4.16146 12.2663 4.66986C12.7543 5.17826 13.1359 5.77885 13.3889 6.43651C13.642 7.09416 13.7613 7.79567 13.74 8.50001C13.76 9.20351 13.6396 9.90394 13.386 10.5604C13.1323 11.2169 12.7505 11.8163 12.2627 12.3237C11.7749 12.831 11.191 13.2361 10.5449 13.5153C9.89892 13.7946 9.20375 13.9423 8.50001 13.95ZM25.6 4.72001C24.06 4.72001 22.57 5.33001 21.8 6.37001V4.96001H18.72V21.48H21.79V15.52C22.57 16.49 24.01 17.01 25.59 17.01C28.9 17.01 31.49 14.41 31.49 10.87C31.5 7.32001 28.9 4.72001 25.6 4.72001ZM25.07 14.32C24.6241 14.3163 24.1834 14.2231 23.7742 14.0459C23.365 13.8687 22.9955 13.6111 22.6877 13.2884C22.38 12.9657 22.1401 12.5845 21.9825 12.1673C21.8248 11.7502 21.7526 11.3056 21.77 10.86C21.77 8.76001 23.33 7.39001 25.07 7.39001C26.82 7.39001 28.38 8.76001 28.38 10.86C28.38 12.96 26.82 14.33 25.08 14.33L25.07 14.32ZM38.72 4.72001C35.37 4.72001 32.72 7.34001 32.72 10.86C32.72 14.38 35.04 17 38.82 17C41.91 17 43.89 15.13 44.51 13.03H41.51C41.13 13.9 40.07 14.52 38.79 14.52C37.21 14.52 36.01 13.41 35.72 11.82H44.65V10.62C44.6782 9.83506 44.5439 9.05275 44.2555 8.32216C43.9671 7.59158 43.5308 6.92849 42.974 6.3745C42.4172 5.82051 41.7519 5.38757 41.0198 5.10286C40.2878 4.81815 39.5048 4.68781 38.72 4.72001ZM35.75 9.65001C35.892 8.95148 36.2735 8.32446 36.8285 7.87716C37.3835 7.42987 38.0773 7.19037 38.79 7.20001C40.37 7.20001 41.58 8.24001 41.72 9.65001H35.75ZM52.82 4.72001C51.45 4.72001 50.01 5.33001 49.35 6.35001V4.95001H46.28V16.76H49.35V10.42C49.35 8.58001 50.34 7.37001 51.95 7.37001C53.43 7.37001 54.23 8.51001 54.23 10.09V16.77H57.3V9.58001C57.3 6.66001 55.5 4.72001 52.82 4.72001ZM65.17 0.230006L58.48 16.76H61.77L63.18 13.15H70.78L72.2 16.76H75.53L68.9 0.230006H65.17ZM64.25 10.41L66.98 3.49001L69.7 10.41H64.25ZM79.9 0.230006H76.78V16.76H79.9V0.230006Z" fill="black"/>
</svg>
