<svg width="120" height="28" viewBox="0 0 120 28" fill="none" xmlns="http://www.w3.org/2000/svg">
<g clip-path="url(#clip0_68_293)">
<path d="M59.1005 8.72031H60.0005V10.6103H58.8105C57.8805 10.6103 57.1905 10.8303 56.7305 11.2803C56.2705 11.7303 56.0405 12.4603 56.0405 13.4803V19.6703H54.1705V8.76031H56.0505V10.5003C56.0505 10.6003 56.0905 10.6503 56.1905 10.6503C56.2505 10.6503 56.2905 10.6303 56.3205 10.6103C56.3585 10.5598 56.3858 10.5019 56.4005 10.4403C56.7605 9.29031 57.6605 8.72031 59.0805 8.72031H59.1005ZM71.3305 11.0603C71.8305 11.9303 72.0705 12.9803 72.0705 14.2103C72.0705 15.4403 71.8205 16.5003 71.3305 17.3703C70.9011 18.1709 70.2598 18.8379 69.4767 19.2982C68.6935 19.7586 67.7988 19.9946 66.8905 19.9803C65.1105 19.9803 63.8605 19.2803 63.1405 17.8403C63.0805 17.7403 63.0105 17.6803 62.9305 17.6803C62.8505 17.6803 62.8105 17.7203 62.8105 17.8003V23.6603H60.9305V8.76031H62.8105V10.6303C62.8105 10.7103 62.8505 10.7503 62.9305 10.7503C63.0105 10.7503 63.0805 10.7003 63.1305 10.5903C63.8605 9.16031 65.1105 8.44031 66.8905 8.44031C67.7988 8.42605 68.6935 8.66203 69.4767 9.12239C70.2598 9.58275 70.9011 10.2497 71.3305 11.0503V11.0603ZM70.1905 14.2103C70.1905 12.9303 69.8505 11.9203 69.1705 11.2103C68.8196 10.8471 68.3959 10.5621 67.9271 10.3743C67.4583 10.1864 66.9551 10.0999 66.4505 10.1203C65.3205 10.1203 64.4205 10.4803 63.7305 11.2003C63.0505 11.9303 62.7905 12.9303 62.7905 14.2103C62.7905 15.5003 63.0505 16.5103 63.7305 17.2203C64.4205 17.9503 65.3305 18.3003 66.4505 18.3003C67.5705 18.3003 68.4805 17.9403 69.1705 17.2203C69.8901 16.3924 70.2563 15.3153 70.1905 14.2203V14.2103ZM40.3805 11.0703C40.8705 11.9503 41.1205 13.0003 41.1205 14.2303C41.1205 15.4603 40.8705 16.5103 40.3805 17.3903C39.9504 18.1924 39.3074 18.8604 38.5224 19.3209C37.7373 19.7813 36.8405 20.0164 35.9305 20.0003C34.1605 20.0003 32.9105 19.2903 32.1905 17.8603C32.1305 17.7503 32.0605 17.6903 31.9805 17.6903C31.9005 17.6903 31.8505 17.7303 31.8505 17.8203V23.6703H29.9805V8.77031H31.8605V10.6403C31.8605 10.7303 31.9005 10.7703 31.9805 10.7703C32.0705 10.7703 32.1305 10.7103 32.1905 10.6003C32.9105 9.17031 34.1605 8.46031 35.9405 8.46031C36.8488 8.44605 37.7435 8.68203 38.5266 9.14239C39.3098 9.60275 39.9511 10.2697 40.3805 11.0703ZM39.2405 14.2303C39.2405 12.9403 38.9005 11.9403 38.2105 11.2203C37.8599 10.8601 37.4374 10.5778 36.9705 10.3918C36.5036 10.2057 36.0027 10.12 35.5005 10.1403C34.3705 10.1403 33.4705 10.5003 32.7805 11.2203C32.0905 11.9403 31.8405 12.9403 31.8405 14.2303C31.8405 15.5203 32.0905 16.5303 32.7805 17.2403C33.4705 17.9603 34.3805 18.3203 35.5005 18.3203C36.6205 18.3203 37.5305 17.9603 38.2105 17.2403C38.9337 16.4139 39.3035 15.3366 39.2405 14.2403V14.2303ZM50.7405 16.2103H52.7105C52.445 17.2323 51.8851 18.1537 51.1005 18.8603C50.2905 19.6103 49.1205 19.9803 47.6105 19.9803C46.5676 20.0022 45.536 19.7615 44.6105 19.2803C43.7573 18.8273 43.0577 18.1312 42.6005 17.2803C42.1076 16.3336 41.8633 15.2773 41.8905 14.2103C41.8905 13.0403 42.1205 12.0103 42.5805 11.1503C43.0127 10.3114 43.6799 9.61642 44.5005 9.15031C45.3305 8.68031 46.3005 8.45031 47.4005 8.45031C48.5105 8.45031 49.4305 8.67031 50.2005 9.14031C50.9424 9.56965 51.5435 10.2055 51.9305 10.9703C52.3105 11.7303 52.5005 12.5703 52.5005 13.4703V14.7403H43.8705C43.9305 15.8303 44.3005 16.7003 44.9605 17.3403C45.6205 17.9803 46.5005 18.3003 47.6105 18.3003C48.5105 18.3003 49.2105 18.1203 49.6805 17.7503C50.1605 17.3803 50.5105 16.8603 50.7305 16.2103H50.7405ZM43.8905 13.1603H50.4205C50.4205 12.2103 50.1805 11.4603 49.6905 10.9303C49.2105 10.3903 48.4405 10.1303 47.4005 10.1303C46.4305 10.1303 45.6405 10.3803 45.0205 10.9103C44.4105 11.4303 44.0205 12.1803 43.8905 13.1603ZM73.5505 19.6603H75.4205V4.57031H73.5505V19.6803V19.6603ZM99.5405 7.56031H101.73V5.22031H99.5405V7.58031V7.56031ZM107.26 18.0403L106.64 18.1003C106.598 18.1019 106.556 18.0947 106.516 18.0792C106.477 18.0637 106.441 18.0403 106.41 18.0103C106.382 17.9794 106.361 17.943 106.347 17.9035C106.333 17.864 106.328 17.8221 106.33 17.7803L106.38 17.1603C106.42 16.8203 106.44 16.2903 106.44 15.5803V10.3603H109.11L108.58 8.76031H106.44V5.82031H104.56V8.76031H102.53V10.3603H104.56V16.1003C104.56 17.3003 104.86 18.2003 105.44 18.7903C106.02 19.3703 106.91 19.6703 108.1 19.6703H109.56V17.9903H108.83C108.13 17.9903 107.6 18.0103 107.26 18.0403ZM118.22 8.76031L115.12 17.9103C115.07 18.0303 115.01 18.1703 114.8 18.1703C114.58 18.1703 114.52 18.0303 114.48 17.9103L111.38 8.76031H109.47L113.06 19.6603H114.33C114.41 19.6603 114.47 19.6803 114.51 19.6903C114.56 19.7003 114.59 19.7403 114.61 19.7903C114.67 19.8803 114.67 20.0103 114.6 20.1703L114.01 21.7703C113.93 21.9703 113.77 22.0803 113.54 22.0803L112.95 22.0303C112.65 21.9903 112.25 21.9803 111.77 21.9803H110.25V23.6503H112.25C113.41 23.6503 114.11 23.4503 114.72 23.0503C115.32 22.6503 115.79 21.9503 116.12 20.9503L120 9.18031V8.76031H118.22ZM93.4205 12.8303L90.5005 8.76031H88.4405V9.18031L91.9505 13.9003L87.6705 19.2503V19.6703H89.7705L93.1805 15.2803L96.3705 19.6703H98.3905V19.2503L94.6605 14.2103L98.7005 9.20031V8.76031H96.6005L93.4305 12.8303H93.4205ZM99.7405 19.6703H101.61V8.76031H99.7405V19.6703ZM87.7405 16.2103C87.4749 17.2323 86.9151 18.1537 86.1305 18.8603C85.3205 19.6103 84.1505 19.9803 82.6405 19.9803C81.5976 20.0022 80.566 19.7615 79.6405 19.2803C78.7873 18.8273 78.0877 18.1312 77.6305 17.2803C77.1376 16.3336 76.8933 15.2773 76.9205 14.2103C76.9205 13.0403 77.1505 12.0103 77.6105 11.1503C78.0427 10.3114 78.7099 9.61642 79.5305 9.15031C80.3605 8.68031 81.3305 8.45031 82.4305 8.45031C83.5405 8.45031 84.4605 8.67031 85.2305 9.14031C85.9724 9.56965 86.5735 10.2055 86.9605 10.9703C87.3405 11.7303 87.5305 12.5703 87.5305 13.4703V14.7403H78.9005C78.9605 15.8303 79.3305 16.7003 79.9905 17.3403C80.6505 17.9803 81.5305 18.3003 82.6405 18.3003C83.5405 18.3003 84.2405 18.1203 84.7105 17.7503C85.1905 17.3803 85.5405 16.8603 85.7605 16.2103H87.7405ZM78.9205 13.1603H85.4505C85.4505 12.2103 85.2105 11.4603 84.7205 10.9303C84.2405 10.3903 83.4705 10.1303 82.4305 10.1303C81.4605 10.1303 80.6705 10.3803 80.0505 10.9103C79.4405 11.4303 79.0505 12.1803 78.9205 13.1603Z" fill="black"/>
<path d="M11.6191 0.949219V27.4292M11.5991 9.33922L3.86914 2.11922V9.33922H11.6191H11.5991ZM11.8491 9.33922L19.5991 2.11922V9.33922H11.8491ZM19.3591 16.4792L11.5991 9.34922V19.2292L19.3491 26.1392V16.4792H19.3591Z" stroke="black"/>
<path d="M3.86914 16.4796L11.6191 9.34961V19.2296L3.86914 26.1396V16.4796Z" stroke="black"/>
<path d="M0.689453 9.33984V19.6798H3.86945V16.4698L11.6195 9.33984H0.689453ZM11.5995 9.43984L19.3595 16.5698V19.7698H22.5895V9.43984H11.5995Z" stroke="black"/>
</g>
<defs>
<clipPath id="clip0_68_293">
<rect width="120" height="28" fill="white"/>
</clipPath>
</defs>
</svg>
